<svg width="90" height="90" viewBox="0 0 90 90" fill="none" xmlns="http://www.w3.org/2000/svg">
<g clip-path="url(#clip0_401_46)">
<path d="M50.625 33.75L39.375 45L50.625 56.25" stroke="white" stroke-width="3" stroke-linecap="round" stroke-linejoin="round"/>
<path opacity="0.5" d="M7.5 45C7.5 27.3225 7.5 18.4838 12.99 12.99C18.4875 7.5 27.3225 7.5 45 7.5C62.6775 7.5 71.5162 7.5 77.0062 12.99C82.5 18.4875 82.5 27.3225 82.5 45C82.5 62.6775 82.5 71.5162 77.0062 77.0062C71.52 82.5 62.6775 82.5 45 82.5C27.3225 82.5 18.4838 82.5 12.99 77.0062C7.5 71.52 7.5 62.6775 7.5 45Z" stroke="white" stroke-width="3"/>
</g>
<defs>
<clipPath id="clip0_401_46">
<rect width="90" height="90" fill="white"/>
</clipPath>
</defs>
</svg>
